#Comment line ignore any data following # character 
#Hierarchical Translation and Rotation (.htr) file 
[Header]	
#Header keywords are followed by a single value 
FileType HTR		#Single word string
DataType HTRS		#Translation followed by rotation and scale data
FileVersion 1		#integer
NumSegments 25		#integer
NumFrames 5		#integer
DataFrameRate 30		#integer, data frame rate in this file
EulerRotationOrder ZYX
CalibrationUnits mm
RotationUnits Degrees
GlobalAxisofGravity Y
BoneLengthAxis Y
ScaleFactor 1.00
[SegmentNames&Hierarchy]
#CHILD	PARENT
BN_Tick_Root GLOBAL
BN_Torso BN_Tick_Root
BN_L_Leg_Front01 BN_Torso
BN_L_Leg_Rear01 BN_Torso
BN_MetalTop BN_Torso
BN_Neck BN_Torso
BN_R_Leg_Front01 BN_Torso
BN_R_Leg_Rear01 BN_Torso
BN_Sack BN_Torso
BN_L_Leg_Front02 BN_L_Leg_Front01
BN_L_Leg_Front03 BN_L_Leg_Front02
BN_L_Leg_Rear02 BN_L_Leg_Rear01
BN_L_Leg_Rear03 BN_L_Leg_Rear02
BN_Head BN_Neck
BN_Needle BN_Head
BN_R_Leg_Front02 BN_R_Leg_Front01
BN_R_Leg_Front03 BN_R_Leg_Front02
BN_R_Leg_Rear02 BN_R_Leg_Rear01
BN_R_Leg_Rear03 BN_R_Leg_Rear02
BN_SackDef01 BN_Sack
BN_SackDef02 BN_Sack
BN_SackDef03 BN_Sack
BN_SackDef04 BN_Sack
BN_SackDef05 BN_Sack
BN_SackDef06 BN_Sack
[BasePosition]
#SegmentName Tx, Ty, Tz, Rx, Ry, Rz, BoneLength
BN_Tick_Root 0.000000 0.000000 0.000000 -90.000000 0.000000 0.000000 10.000000 
BN_Torso 0.000000 0.000000 0.000000 0.000000 0.000000 0.000000 10.000000 
BN_L_Leg_Front01 0.000000 0.000000 0.000000 0.000000 0.000000 0.000000 10.000000 
BN_L_Leg_Rear01 0.000000 0.000000 0.000000 0.000000 0.000000 0.000000 10.000000 
BN_MetalTop 0.000000 0.000000 0.000000 0.000000 0.000000 0.000000 10.000000 
BN_Neck 0.000000 0.000000 0.000000 0.000000 0.000000 0.000000 10.000000 
BN_R_Leg_Front01 0.000000 0.000000 0.000000 0.000000 0.000000 0.000000 10.000000 
BN_R_Leg_Rear01 0.000000 0.000000 0.000000 0.000000 0.000000 0.000000 10.000000 
BN_Sack 0.000000 0.000000 0.000000 0.000000 0.000000 0.000000 10.000000 
BN_L_Leg_Front02 0.000000 0.000000 0.000000 0.000000 0.000000 0.000000 10.000000 
BN_L_Leg_Front03 0.000000 0.000000 0.000000 0.000000 0.000000 0.000000 10.000000 
BN_L_Leg_Rear02 0.000000 0.000000 0.000000 0.000000 0.000000 0.000000 10.000000 
BN_L_Leg_Rear03 0.000000 0.000000 0.000000 0.000000 0.000000 0.000000 10.000000 
BN_Head 0.000000 0.000000 0.000000 0.000000 0.000000 0.000000 10.000000 
BN_Needle 0.000000 0.000000 0.000000 0.000000 0.000000 0.000000 10.000000 
BN_R_Leg_Front02 0.000000 0.000000 0.000000 0.000000 0.000000 0.000000 10.000000 
BN_R_Leg_Front03 0.000000 0.000000 0.000000 0.000000 0.000000 0.000000 10.000000 
BN_R_Leg_Rear02 0.000000 0.000000 0.000000 0.000000 0.000000 0.000000 10.000000 
BN_R_Leg_Rear03 0.000000 0.000000 0.000000 0.000000 0.000000 0.000000 10.000000 
BN_SackDef01 0.000000 0.000000 0.000000 0.000000 0.000000 0.000000 10.000000 
BN_SackDef02 0.000000 0.000000 0.000000 0.000000 0.000000 0.000000 10.000000 
BN_SackDef03 0.000000 0.000000 0.000000 0.000000 0.000000 0.000000 10.000000 
BN_SackDef04 0.000000 0.000000 0.000000 0.000000 0.000000 0.000000 10.000000 
BN_SackDef05 0.000000 0.000000 0.000000 0.000000 0.000000 0.000000 10.000000 
BN_SackDef06 0.000000 0.000000 0.000000 0.000000 0.000000 0.000000 10.000000 
#Beginning of Data. Separated by tabs
#Fr	Tx	Ty	Tz	Rx	Ry	Rz	SF
[BN_Tick_Root]
56 0.000000 -0.000121 0.000000 0.000000 0.000000 -0.000020 0.000121
57 0.000000 -0.000123 0.000000 0.000000 0.000000 -0.000020 0.000123
58 0.000000 -0.000125 0.000000 0.000000 0.000000 -0.000020 0.000125
59 0.000000 -0.000127 0.000000 0.000000 0.000000 -0.000020 0.000127
60 0.000000 -0.000130 0.000000 0.000000 0.000000 -0.000020 0.000130
[BN_Torso]
56 86.541985 112.326088 298.581543 20.665863 -1.421362 12.058627 330.541382
57 84.289032 110.481186 298.558472 21.311769 -1.262552 9.302039 329.314270
58 80.105095 109.160492 298.546722 22.507612 -0.932178 4.184266 327.815460
59 77.852272 107.335686 298.543518 23.155388 -0.660152 1.431584 326.665192
60 79.105667 103.790321 300.562805 22.490438 -0.529219 3.709454 327.670776
[BN_L_Leg_Front01]
56 -68.477791 10.734189 -26.804373 33.204422 66.946648 -137.296738 74.316254
57 -68.477791 10.734189 -26.804373 33.846218 65.897079 -133.881424 74.316254
58 -68.477791 10.734189 -26.804373 34.297600 63.727470 -127.427658 74.316254
59 -68.477791 10.734189 -26.804373 34.340199 62.679512 -124.422440 74.316254
60 -68.477791 10.734189 -26.804373 35.633781 64.276459 -127.346321 74.316254
[BN_L_Leg_Rear01]
56 -72.133743 -73.994843 -18.268616 87.717766 45.530628 -134.898239 104.939293
57 -72.133743 -73.994843 -18.268616 86.995255 44.539410 -131.527115 104.939293
58 -72.133743 -73.994843 -18.268616 85.110275 42.351601 -125.351006 104.939293
59 -72.133743 -73.994843 -18.268616 84.089478 41.313774 -122.111397 104.939293
60 -72.133743 -73.994843 -18.268616 85.627426 43.405186 -124.555511 104.939293
[BN_MetalTop]
56 0.000008 13.737477 26.403606 79.344231 -39.594402 -96.750999 29.763546
57 0.000008 13.737477 26.403606 77.565948 -40.260696 -93.869179 29.763546
58 0.000008 13.737477 26.403606 76.175499 -40.428669 -91.460411 29.763546
59 0.000008 13.737477 26.403606 77.376144 -41.099174 -92.627647 29.763546
60 0.000008 13.737477 26.403606 79.115959 -39.646702 -94.660416 29.763546
[BN_Neck]
56 0.000014 95.233284 10.002091 -89.999672 -65.297531 89.999657 95.757088
57 0.000014 95.233284 10.002091 -89.999672 -65.297531 89.999657 95.757088
58 0.000014 95.233284 10.002091 -89.999672 -65.297531 89.999657 95.757088
59 0.000014 95.233284 10.002091 -89.999672 -65.297531 89.999657 95.757088
60 0.000014 95.233284 10.002091 -89.999672 -65.297531 89.999657 95.757088
[BN_R_Leg_Front01]
56 68.477768 10.734107 -26.804314 -37.861996 63.818398 -68.656555 74.316193
57 68.477768 10.734107 -26.804314 -39.817043 63.934280 -66.206894 74.316193
58 68.477768 10.734107 -26.804314 -43.339390 64.157318 -62.571342 74.316193
59 68.477768 10.734107 -26.804314 -45.016140 64.430580 -60.132072 74.316193
60 68.477768 10.734107 -26.804314 -42.653030 64.560272 -59.658737 74.316193
[BN_R_Leg_Rear01]
56 72.133751 -73.994873 -18.268644 -67.720268 38.387005 -84.491241 104.939331
57 72.133751 -73.994873 -18.268644 -69.439644 38.366444 -81.684547 104.939331
58 72.133751 -73.994873 -18.268644 -72.862755 38.183403 -76.587891 104.939331
59 72.133751 -73.994873 -18.268644 -74.790001 38.237022 -73.740578 104.939331
60 72.133751 -73.994873 -18.268644 -72.979904 39.040241 -75.378204 104.939331
[BN_Sack]
56 -0.000000 -78.024918 33.657791 93.196320 -15.132692 -96.776031 84.974907
57 -0.000000 -78.024918 33.657791 93.447136 -16.038589 -97.811401 84.974907
58 -0.000000 -78.024918 33.657791 93.698677 -16.330467 -98.723679 84.974907
59 -0.000000 -78.024918 33.657791 93.903160 -15.020058 -99.532295 84.974907
60 -0.000000 -78.024918 33.657791 94.026077 -11.961481 -100.374550 84.974907
[BN_L_Leg_Front02]
56 142.805023 -0.000015 -0.000104 0.152105 0.406778 -103.641975 142.805023
57 142.805023 -0.000015 -0.000104 0.150633 0.407326 -104.056633 142.805023
58 142.805023 -0.000015 -0.000104 0.152604 0.423255 -104.938515 142.805023
59 142.805023 -0.000015 -0.000104 0.148702 0.419649 -105.181534 142.805023
60 142.805023 -0.000015 -0.000104 0.152486 0.406635 -103.534889 142.805023
[BN_L_Leg_Front03]
56 124.143021 -0.000045 0.000007 0.351193 -0.415678 112.487328 124.143021
57 124.143021 -0.000045 0.000007 0.353739 -0.414272 112.921021 124.143021
58 124.143021 -0.000045 0.000007 0.351877 -0.410230 113.832428 124.143021
59 124.143021 -0.000045 0.000007 0.355138 -0.408299 114.080101 124.143021
60 124.143021 -0.000045 0.000007 0.351581 -0.415350 112.380127 124.143021
[BN_L_Leg_Rear02]
56 139.939041 0.000075 -0.000022 0.116845 -0.205541 83.777290 139.939041
57 139.939041 0.000075 -0.000022 0.113655 -0.208221 84.624336 139.939041
58 139.939041 0.000075 -0.000022 0.111833 -0.209206 85.624847 139.939041
59 139.939041 0.000075 -0.000022 0.110770 -0.209770 86.205994 139.939041
60 139.939041 0.000075 -0.000022 0.110857 -0.209725 86.158562 139.939041
[BN_L_Leg_Rear03]
56 142.839615 0.000179 -0.000060 0.000204 -0.002338 -99.977669 142.839615
57 142.839615 0.000179 -0.000060 0.000227 -0.002336 -101.078629 142.839615
58 142.839615 0.000179 -0.000060 0.000253 -0.002334 -102.353966 142.839615
59 142.839615 0.000179 -0.000060 0.000268 -0.002332 -103.094757 142.839615
60 142.839615 0.000179 -0.000060 0.000266 -0.002332 -103.037872 142.839615
[BN_Head]
56 57.062447 -0.000030 0.000000 9.670248 24.331057 62.182823 57.062447
57 57.062447 -0.000030 0.000000 10.241407 21.842934 62.723419 57.062447
58 57.062447 -0.000030 0.000000 13.296501 17.507313 64.340637 57.062447
59 57.062447 -0.000030 0.000000 15.035205 15.199225 65.098114 57.062447
60 57.062447 -0.000030 0.000000 12.973333 16.638187 63.755020 57.062447
[BN_Needle]
56 43.342983 326.398193 -0.000110 0.000003 0.000030 87.896805 329.263397
57 43.342987 326.398193 -0.000110 0.000003 0.000030 87.896805 329.263397
58 43.342987 326.398193 -0.000110 0.000003 0.000030 87.896805 329.263397
59 43.342987 326.398193 -0.000111 0.000003 0.000030 87.896805 329.263397
60 43.342987 326.398193 -0.000111 0.000003 0.000030 87.896805 329.263397
[BN_R_Leg_Front02]
56 142.804947 -0.000060 0.000060 -0.133568 0.461794 108.874451 142.804947
57 142.804947 -0.000060 0.000060 -0.140272 0.458105 108.204254 142.804947
58 142.804947 -0.000060 0.000060 -0.142824 0.445825 107.089195 142.804947
59 142.804947 -0.000060 0.000060 -0.145351 0.435957 106.313614 142.804947
60 142.804947 -0.000060 0.000060 -0.147744 0.426055 105.538025 142.804947
[BN_R_Leg_Front03]
56 124.143005 -0.000060 -0.000156 -0.352450 -0.395778 -117.777313 124.143005
57 124.143005 -0.000060 -0.000156 -0.353083 -0.400540 -117.117584 124.143005
58 124.143005 -0.000060 -0.000156 -0.355354 -0.403932 -116.012894 124.143005
59 124.143005 -0.000060 -0.000156 -0.355266 -0.406237 -115.228096 124.143005
60 124.143005 -0.000060 -0.000156 -0.355210 -0.408543 -114.443260 124.143005
[BN_R_Leg_Rear02]
56 139.939011 -0.000149 0.000015 -0.123180 -0.202707 -81.821732 139.939011
57 139.939011 -0.000149 0.000015 -0.121397 -0.211011 -83.064476 139.939011
58 139.939011 -0.000149 0.000015 -0.111124 -0.206028 -84.666672 139.939011
59 139.939011 -0.000149 0.000015 -0.116794 -0.220728 -85.687744 139.939011
60 139.939011 -0.000149 0.000015 -0.109564 -0.206862 -85.532654 139.939011
[BN_R_Leg_Rear03]
56 142.839417 0.000075 0.000119 0.002342 -0.000152 97.425735 142.839417
57 142.839417 0.000075 0.000119 0.002340 -0.000185 99.061005 142.839417
58 142.839417 0.000075 0.000119 0.002336 -0.000228 101.131973 142.839417
59 142.839417 0.000075 0.000119 0.002333 -0.000254 102.438545 142.839417
60 142.839417 0.000075 0.000119 0.002334 -0.000250 102.241699 142.839417
[BN_SackDef01]
56 337.401794 -6.777244 58.159679 -128.408218 -44.374973 -11.740845 342.444824
57 379.588318 -8.229643 65.482986 -128.408218 -44.374973 -11.740845 385.283051
58 412.039215 -9.346952 71.116325 -128.408218 -44.374973 -11.740845 418.235840
59 425.018555 -9.793784 73.369415 -128.408218 -44.374973 -11.740845 431.416016
60 386.076813 -8.453094 66.609367 -128.408218 -44.374973 -11.740845 391.871857
[BN_SackDef02]
56 162.517700 -99.637375 63.932747 32.077126 -27.375721 -88.781525 201.064682
57 173.942047 -117.695396 72.723648 32.077126 -27.375721 -88.781525 222.253845
58 182.729996 -131.586151 79.485847 32.077126 -27.375721 -88.781525 238.795227
59 186.244873 -137.141953 82.190506 32.077126 -27.375721 -88.781525 245.459457
60 175.699203 -120.472847 74.075752 32.077126 -27.375721 -88.781525 225.546295
[BN_SackDef03]
56 337.401794 -6.777186 -58.159904 18.144459 44.375008 -11.740894 342.444855
57 379.588318 -8.229586 -65.483253 18.144459 44.375008 -11.740894 385.283112
58 412.039124 -9.346914 -71.116470 18.144459 44.375008 -11.740894 418.235779
59 425.018494 -9.793746 -73.369637 18.144459 44.375008 -11.740894 431.415955
60 386.076782 -8.453029 -66.609573 18.144459 44.375008 -11.740894 391.871857
[BN_SackDef04]
56 162.517700 -99.637283 -63.932724 146.059982 27.375723 -88.781555 201.064621
57 173.942032 -117.695328 -72.723625 146.059982 27.375723 -88.781555 222.253784
58 182.729950 -131.586075 -79.485748 146.059982 27.375723 -88.781555 238.795135
59 186.244858 -137.141861 -82.190422 146.059982 27.375723 -88.781555 245.459381
60 175.699188 -120.472763 -74.075684 146.059982 27.375723 -88.781555 225.546234
[BN_SackDef05]
56 161.712448 100.867294 -89.065842 0.155741 51.314110 90.605110 210.375488
57 182.378403 127.203926 -101.215660 0.155741 51.314110 90.605110 244.309906
58 198.275070 147.462646 -110.561485 0.155741 51.314110 90.605110 270.706635
59 204.633347 155.565552 -114.299614 0.155741 51.314110 90.605110 281.318054
60 185.556885 131.254593 -103.084312 0.155741 51.314110 90.605110 249.570633
[BN_SackDef06]
56 161.712479 100.867409 89.065697 152.058487 -51.314072 90.605019 210.375504
57 182.378448 127.204033 101.215446 152.058487 -51.314072 90.605019 244.309906
58 198.275192 147.462769 110.561348 152.058487 -51.314072 90.605019 270.706726
59 204.633438 155.565659 114.299393 152.058487 -51.314072 90.605019 281.318115
60 185.556976 131.254684 103.084129 152.058487 -51.314072 90.605019 249.570663
